<?xml version="1.0" ?><svg data-name="Layer 1" id="Layer_1" viewBox="0 0 512 512" xmlns="http://www.w3.org/2000/svg"><path d="M206.15,414.94l-32.31,32.3v-107a5.73,5.73,0,1,0-11.45,0v107l-32.3-32.3A5.73,5.73,0,1,0,122,423l42.08,42.08a5.72,5.72,0,0,0,8.1,0L214.24,423a5.72,5.72,0,0,0-8.09-8.1Z"/><path d="M292.28,336.18a5.72,5.72,0,0,0-8.12,0l-42.07,42.07a5.73,5.73,0,1,0,8.1,8.1l32.3-32.3V457.12a5.73,5.73,0,1,0,11.45,0V354.05l32.31,32.3a5.72,5.72,0,0,0,8.09-8.1Z"/><path d="M441.63,45.2H126a5.74,5.74,0,0,0-5.73,5.73v54.76H70.37a5.73,5.73,0,0,0-5.72,5.73V369.15a5.73,5.73,0,1,0,11.45,0v-252H380.24v252a5.73,5.73,0,1,0,11.45,0V111.42a5.73,5.73,0,0,0-5.73-5.73H131.77v-49H435.9v252a5.73,5.73,0,1,0,11.45,0V50.93A5.73,5.73,0,0,0,441.63,45.2Z"/><path d="M328.1,160.05H130a5.73,5.73,0,0,0,0,11.45H328.1a5.73,5.73,0,1,0,0-11.45Z"/><path d="M328.1,218.78h-114a5.73,5.73,0,1,0,0,11.45h114a5.73,5.73,0,1,0,0-11.45Z"/><path d="M130,230.23h42.08a5.73,5.73,0,1,0,0-11.45H130a5.73,5.73,0,0,0,0,11.45Z"/><path d="M328.1,277.51H286.9a5.73,5.73,0,0,0,0,11.46h41.2a5.73,5.73,0,0,0,0-11.46Z"/><path d="M234.3,277.51H130A5.73,5.73,0,0,0,130,289H234.3a5.73,5.73,0,0,0,0-11.46Z"/></svg>